<?xml version="1.0" encoding="UTF-8" standalone="no"?>
<!DOCTYPE svg PUBLIC "-//W3C//DTD SVG 1.1//EN"
 "http://www.w3.org/Graphics/SVG/1.1/DTD/svg11.dtd">
<!-- Generated by graphviz version 2.44.0 (20200408.0750)
 -->
<!-- Pages: 1 -->
<svg width="665pt" height="529pt"
 viewBox="0.00 0.00 665.00 529.45" xmlns="http://www.w3.org/2000/svg" xmlns:xlink="http://www.w3.org/1999/xlink">
<g id="graph0" class="graph" transform="scale(1 1) rotate(0) translate(4 525.45)">
<!-- &#45;5922178014354021764 -->
<g id="node1" class="node">
<title>&#45;5922178014354021764</title>
<polygon fill="#ffffff" stroke="black" points="209.5,-323.81 136.5,-323.81 136.5,-287.81 209.5,-287.81 209.5,-323.81"/>
<text text-anchor="middle" x="173" y="-302.71" font-family="Times,serif" font-size="12.00">check ticket</text>
</g>
<!-- 1550856143900011197 -->
<g id="node2" class="node">
<title>1550856143900011197</title>
<polygon fill="#ffffff" stroke="black" points="291,-238.81 237,-238.81 237,-202.81 291,-202.81 291,-238.81"/>
<text text-anchor="middle" x="264" y="-217.71" font-family="Times,serif" font-size="12.00">decide</text>
</g>
<!-- &#45;5922178014354021764&#45;&gt;1550856143900011197 -->
<g id="edge1" class="edge">
<title>&#45;5922178014354021764&#45;&gt;1550856143900011197</title>
<path fill="none" stroke="#818181" stroke-width="1.56" d="M191.86,-287.61C205.03,-275.59 222.81,-259.38 237.43,-246.05"/>
<polygon fill="#818181" stroke="#818181" stroke-width="1.56" points="240.14,-248.31 245.17,-238.99 235.42,-243.14 240.14,-248.31"/>
<text text-anchor="middle" x="231" y="-260.21" font-family="Times,serif" font-size="12.00">2D</text>
</g>
<!-- &#45;6324418456673249873 -->
<g id="node3" class="node">
<title>&#45;6324418456673249873</title>
<polygon fill="#ffffff" stroke="black" points="609,-52.41 511,-52.41 511,-16.41 609,-16.41 609,-52.41"/>
<text text-anchor="middle" x="560" y="-31.31" font-family="Times,serif" font-size="12.00">examine casually</text>
</g>
<!-- &#45;5922178014354021764&#45;&gt;&#45;6324418456673249873 -->
<g id="edge2" class="edge">
<title>&#45;5922178014354021764&#45;&gt;&#45;6324418456673249873</title>
<path fill="none" stroke="#a4a4a4" stroke-width="1.28" d="M209.74,-301.37C285,-292.21 456.7,-260.15 541,-153.81 561.46,-128 563.89,-88.87 562.76,-62.74"/>
<polygon fill="#a4a4a4" stroke="#a4a4a4" stroke-width="1.28" points="566.25,-62.51 562.13,-52.75 559.26,-62.95 566.25,-62.51"/>
<text text-anchor="middle" x="532" y="-175.21" font-family="Times,serif" font-size="12.00">1D</text>
</g>
<!-- &#45;6094076562012350220 -->
<g id="node4" class="node">
<title>&#45;6094076562012350220</title>
<polygon fill="#ffffff" stroke="black" points="140.5,-52.41 29.5,-52.41 29.5,-16.41 140.5,-16.41 140.5,-52.41"/>
<text text-anchor="middle" x="85" y="-31.31" font-family="Times,serif" font-size="12.00">examine thoroughly</text>
</g>
<!-- &#45;5922178014354021764&#45;&gt;&#45;6094076562012350220 -->
<g id="edge3" class="edge">
<title>&#45;5922178014354021764&#45;&gt;&#45;6094076562012350220</title>
<path fill="none" stroke="#a3a3a3" stroke-width="1.29" d="M165.01,-287.45C152.44,-259.69 127.87,-203.35 112,-153.81 104.47,-130.3 104.51,-123.87 99,-99.81 96.2,-87.6 93.24,-74.05 90.76,-62.55"/>
<polygon fill="#a3a3a3" stroke="#a3a3a3" stroke-width="1.29" points="94.16,-61.7 88.64,-52.65 87.31,-63.16 94.16,-61.7"/>
<text text-anchor="middle" x="131" y="-175.21" font-family="Times,serif" font-size="12.00">1D</text>
</g>
<!-- &#45;597628887565701172 -->
<g id="node5" class="node">
<title>&#45;597628887565701172</title>
<polygon fill="#ffffff" stroke="black" points="382,-153.81 280,-153.81 280,-117.81 382,-117.81 382,-153.81"/>
<text text-anchor="middle" x="331" y="-132.71" font-family="Times,serif" font-size="12.00">pay compensation</text>
</g>
<!-- 1550856143900011197&#45;&gt;&#45;597628887565701172 -->
<g id="edge4" class="edge">
<title>1550856143900011197&#45;&gt;&#45;597628887565701172</title>
<path fill="none" stroke="#000000" stroke-width="2.6" d="M277.88,-202.61C287.4,-190.82 300.19,-174.98 310.83,-161.79"/>
<polygon fill="#000000" stroke="#000000" stroke-width="2.6" points="313.58,-163.97 317.14,-153.99 308.13,-159.57 313.58,-163.97"/>
<text text-anchor="middle" x="309" y="-175.21" font-family="Times,serif" font-size="12.00">5D</text>
</g>
<!-- 5323582218892925942 -->
<g id="node7" class="node">
<title>5323582218892925942</title>
<polygon fill="#ffffff" stroke="black" points="262,-153.81 168,-153.81 168,-117.81 262,-117.81 262,-153.81"/>
<text text-anchor="middle" x="215" y="-132.71" font-family="Times,serif" font-size="12.00">reinitiate request</text>
</g>
<!-- 1550856143900011197&#45;&gt;5323582218892925942 -->
<g id="edge5" class="edge">
<title>1550856143900011197&#45;&gt;5323582218892925942</title>
<path fill="none" stroke="#afafaf" stroke-width="1.2" d="M253.85,-202.61C247.08,-191.15 238.06,-175.87 230.41,-162.92"/>
<polygon fill="#afafaf" stroke="#afafaf" stroke-width="1.2" points="233.24,-160.82 225.14,-153.99 227.21,-164.38 233.24,-160.82"/>
<text text-anchor="middle" x="251.5" y="-175.21" font-family="Times,serif" font-size="12.00">18h</text>
</g>
<!-- 66669375727177016 -->
<g id="node8" class="node">
<title>66669375727177016</title>
<polygon fill="#ffffff" stroke="black" points="479.5,-153.81 400.5,-153.81 400.5,-117.81 479.5,-117.81 479.5,-153.81"/>
<text text-anchor="middle" x="440" y="-132.71" font-family="Times,serif" font-size="12.00">reject request</text>
</g>
<!-- 1550856143900011197&#45;&gt;66669375727177016 -->
<g id="edge6" class="edge">
<title>1550856143900011197&#45;&gt;66669375727177016</title>
<path fill="none" stroke="#8c8c8c" stroke-width="1.47" d="M291.11,-207.02C318.58,-194.07 361.58,-173.79 394.32,-158.36"/>
<polygon fill="#8c8c8c" stroke="#8c8c8c" stroke-width="1.47" points="396.14,-161.37 403.69,-153.94 393.15,-155.04 396.14,-161.37"/>
<text text-anchor="middle" x="370" y="-175.21" font-family="Times,serif" font-size="12.00">1D</text>
</g>
<!-- &#45;6324418456673249873&#45;&gt;&#45;5922178014354021764 -->
<g id="edge7" class="edge">
<title>&#45;6324418456673249873&#45;&gt;&#45;5922178014354021764</title>
<path fill="none" stroke="#b6b6b6" stroke-width="1.14" d="M566.82,-52.7C570.33,-62.53 574.23,-75.17 576,-86.81 580.56,-116.8 574.62,-125.79 563,-153.81 541.93,-204.64 521.33,-212.53 473,-238.81 391.29,-283.25 281.67,-297.77 220.1,-302.51"/>
<polygon fill="#b6b6b6" stroke="#b6b6b6" stroke-width="1.14" points="219.63,-299.04 209.91,-303.24 220.13,-306.02 219.63,-299.04"/>
<text text-anchor="middle" x="563.5" y="-175.21" font-family="Times,serif" font-size="12.00">13h</text>
</g>
<!-- &#45;6324418456673249873&#45;&gt;1550856143900011197 -->
<g id="edge8" class="edge">
<title>&#45;6324418456673249873&#45;&gt;1550856143900011197</title>
<path fill="none" stroke="#363636" stroke-width="2.17" d="M554.28,-52.68C544.84,-78.54 523.52,-127.13 489,-153.81 433,-197.09 349.3,-212.03 301.34,-217.15"/>
<polygon fill="#363636" stroke="#363636" stroke-width="2.17" points="300.71,-213.7 291.1,-218.16 301.39,-220.67 300.71,-213.7"/>
<text text-anchor="middle" x="529" y="-132.71" font-family="Times,serif" font-size="12.00">4D</text>
</g>
<!-- &#45;6094076562012350220&#45;&gt;&#45;5922178014354021764 -->
<g id="edge9" class="edge">
<title>&#45;6094076562012350220&#45;&gt;&#45;5922178014354021764</title>
<path fill="none" stroke="#505050" stroke-width="1.96" d="M84.58,-52.81C84.34,-81.08 85.75,-138.47 99,-184.81 106.38,-210.61 112.19,-215.8 126,-238.81 134.33,-252.69 144.67,-267.43 153.52,-279.45"/>
<polygon fill="#505050" stroke="#505050" stroke-width="1.96" points="150.87,-281.75 159.66,-287.67 156.48,-277.56 150.87,-281.75"/>
<text text-anchor="middle" x="107" y="-175.21" font-family="Times,serif" font-size="12.00">3D</text>
</g>
<!-- &#45;6094076562012350220&#45;&gt;1550856143900011197 -->
<g id="edge10" class="edge">
<title>&#45;6094076562012350220&#45;&gt;1550856143900011197</title>
<path fill="none" stroke="#ababab" stroke-width="1.23" d="M89.25,-52.68C96.15,-77.69 111.94,-124.19 140,-153.81 152.99,-167.53 195.7,-188.83 227.38,-203.5"/>
<polygon fill="#ababab" stroke="#ababab" stroke-width="1.23" points="226.26,-206.84 236.81,-207.82 229.18,-200.47 226.26,-206.84"/>
<text text-anchor="middle" x="149.5" y="-132.71" font-family="Times,serif" font-size="12.00">21h</text>
</g>
<!-- @@endnode -->
<g id="node10" class="node">
<title>@@endnode</title>
<ellipse fill="none" stroke="black" cx="379" cy="-34.41" rx="30.32" ry="30.32"/>
<ellipse fill="none" stroke="black" cx="379" cy="-34.41" rx="34.31" ry="34.31"/>
<text text-anchor="start" x="370" y="-26.31" font-family="Times,serif" font-size="32.00">■</text>
</g>
<!-- &#45;597628887565701172&#45;&gt;@@endnode -->
<g id="edge18" class="edge">
<title>&#45;597628887565701172&#45;&gt;@@endnode</title>
<path fill="none" stroke="black" d="M333.27,-117.39C334.92,-108.03 337.63,-96.47 342,-86.81 344.62,-81.02 347.93,-75.23 351.51,-69.73"/>
<polygon fill="black" stroke="black" points="354.47,-71.59 357.26,-61.37 348.71,-67.63 354.47,-71.59"/>
<text text-anchor="middle" x="345.5" y="-90.21" font-family="Times,serif" font-size="12.00">3</text>
</g>
<!-- 4312796267293782424 -->
<g id="node6" class="node">
<title>4312796267293782424</title>
<polygon fill="#ffffff" stroke="black" points="217,-408.81 129,-408.81 129,-372.81 217,-372.81 217,-408.81"/>
<text text-anchor="middle" x="173" y="-387.71" font-family="Times,serif" font-size="12.00">register request</text>
</g>
<!-- 4312796267293782424&#45;&gt;&#45;5922178014354021764 -->
<g id="edge11" class="edge">
<title>4312796267293782424&#45;&gt;&#45;5922178014354021764</title>
<path fill="none" stroke="#b9b9b9" stroke-width="1.11" d="M173,-372.61C173,-361.48 173,-346.76 173,-334.06"/>
<polygon fill="#b9b9b9" stroke="#b9b9b9" stroke-width="1.11" points="176.5,-333.99 173,-323.99 169.5,-333.99 176.5,-333.99"/>
<text text-anchor="middle" x="182.5" y="-345.21" font-family="Times,serif" font-size="12.00">10h</text>
</g>
<!-- 4312796267293782424&#45;&gt;&#45;6324418456673249873 -->
<g id="edge12" class="edge">
<title>4312796267293782424&#45;&gt;&#45;6324418456673249873</title>
<path fill="none" stroke="#bcbcbc" stroke-width="1.09" d="M217.31,-386.64C334.56,-377.66 644,-349.88 644,-306.81 644,-306.81 644,-306.81 644,-134.81 644,-103.22 618.94,-76.48 596.19,-58.72"/>
<polygon fill="#bcbcbc" stroke="#bcbcbc" stroke-width="1.09" points="598.08,-55.76 587.97,-52.59 593.9,-61.37 598.08,-55.76"/>
<text text-anchor="middle" x="650.5" y="-217.71" font-family="Times,serif" font-size="12.00">8h</text>
</g>
<!-- 4312796267293782424&#45;&gt;&#45;6094076562012350220 -->
<g id="edge13" class="edge">
<title>4312796267293782424&#45;&gt;&#45;6094076562012350220</title>
<path fill="none" stroke="#a8a8a8" stroke-width="1.25" d="M128.9,-387.33C77.64,-381.78 0,-363.94 0,-306.81 0,-306.81 0,-306.81 0,-134.81 0,-103.06 25.36,-76.34 48.37,-58.62"/>
<polygon fill="#a8a8a8" stroke="#a8a8a8" stroke-width="1.25" points="50.71,-61.25 56.7,-52.51 46.56,-55.61 50.71,-61.25"/>
<text text-anchor="middle" x="9.5" y="-217.71" font-family="Times,serif" font-size="12.00">23h</text>
</g>
<!-- 5323582218892925942&#45;&gt;&#45;5922178014354021764 -->
<g id="edge14" class="edge">
<title>5323582218892925942&#45;&gt;&#45;5922178014354021764</title>
<path fill="none" stroke="#666666" stroke-width="1.78" d="M210.73,-153.89C203.43,-183.1 188.48,-242.88 179.75,-277.8"/>
<polygon fill="#666666" stroke="#666666" stroke-width="1.78" points="176.29,-277.23 177.26,-287.78 183.08,-278.93 176.29,-277.23"/>
<text text-anchor="middle" x="206" y="-217.71" font-family="Times,serif" font-size="12.00">2D</text>
</g>
<!-- 5323582218892925942&#45;&gt;&#45;6324418456673249873 -->
<g id="edge15" class="edge">
<title>5323582218892925942&#45;&gt;&#45;6324418456673249873</title>
<path fill="none" stroke="#acacac" stroke-width="1.22" d="M262.29,-120.21C265.23,-119.38 268.15,-118.57 271,-117.81 305.37,-108.64 314.75,-109.45 349,-99.81 366.59,-94.86 370.58,-92.32 388,-86.81 425.43,-74.98 467.68,-62.35 500.93,-52.56"/>
<polygon fill="#acacac" stroke="#acacac" stroke-width="1.22" points="502.33,-55.8 510.94,-49.62 500.36,-49.08 502.33,-55.8"/>
<text text-anchor="middle" x="397.5" y="-90.21" font-family="Times,serif" font-size="12.00">20h</text>
</g>
<!-- 5323582218892925942&#45;&gt;&#45;6094076562012350220 -->
<g id="edge16" class="edge">
<title>5323582218892925942&#45;&gt;&#45;6094076562012350220</title>
<path fill="none" stroke="#c8c8c8" d="M192.65,-117.72C171.35,-101.44 139.11,-76.78 115.47,-58.7"/>
<polygon fill="#c8c8c8" stroke="#c8c8c8" points="117.56,-55.9 107.49,-52.6 113.31,-61.46 117.56,-55.9"/>
<text text-anchor="middle" x="176" y="-90.21" font-family="Times,serif" font-size="12.00">48m</text>
</g>
<!-- 66669375727177016&#45;&gt;@@endnode -->
<g id="edge19" class="edge">
<title>66669375727177016&#45;&gt;@@endnode</title>
<path fill="none" stroke="black" d="M429.37,-117.5C421.84,-105.22 411.44,-88.28 402.05,-72.97"/>
<polygon fill="black" stroke="black" points="404.88,-70.88 396.66,-64.19 398.91,-74.54 404.88,-70.88"/>
<text text-anchor="middle" x="419.5" y="-90.21" font-family="Times,serif" font-size="12.00">3</text>
</g>
<!-- @@startnode -->
<g id="node9" class="node">
<title>@@startnode</title>
<ellipse fill="none" stroke="black" cx="173" cy="-489.63" rx="31.64" ry="31.64"/>
<text text-anchor="start" x="163" y="-480.93" font-family="Times,serif" font-size="34.00">●</text>
</g>
<!-- @@startnode&#45;&gt;4312796267293782424 -->
<g id="edge17" class="edge">
<title>@@startnode&#45;&gt;4312796267293782424</title>
<path fill="none" stroke="black" d="M173,-457.73C173,-445.36 173,-431.22 173,-419.22"/>
<polygon fill="black" stroke="black" points="176.5,-418.91 173,-408.91 169.5,-418.91 176.5,-418.91"/>
<text text-anchor="middle" x="176.5" y="-430.21" font-family="Times,serif" font-size="12.00">6</text>
</g>
</g>
</svg>
